<svg width="25" height="25" viewBox="0 0 25 25" fill="none" xmlns="http://www.w3.org/2000/svg">
<g clip-path="url(#clip0_1_185)">
<path d="M1.5 1.5V11.5H23.5V1.5H1.5ZM13.5 7.5H4.5V5.5H13.5V7.5ZM16.5 7.5C16.3022 7.5 16.1089 7.44135 15.9444 7.33147C15.78 7.22159 15.6518 7.06541 15.5761 6.88268C15.5004 6.69996 15.4806 6.49889 15.5192 6.30491C15.5578 6.11093 15.653 5.93275 15.7929 5.79289C15.9327 5.65304 16.1109 5.5578 16.3049 5.51921C16.4989 5.48063 16.7 5.50043 16.8827 5.57612C17.0654 5.65181 17.2216 5.77998 17.3315 5.94443C17.4414 6.10888 17.5 6.30222 17.5 6.5C17.5 6.76522 17.3946 7.01957 17.2071 7.20711C17.0196 7.39464 16.7652 7.5 16.5 7.5ZM19.5 7.5C19.3022 7.5 19.1089 7.44135 18.9444 7.33147C18.78 7.22159 18.6518 7.06541 18.5761 6.88268C18.5004 6.69996 18.4806 6.49889 18.5192 6.30491C18.5578 6.11093 18.653 5.93275 18.7929 5.79289C18.9327 5.65304 19.1109 5.5578 19.3049 5.51921C19.4989 5.48063 19.7 5.50043 19.8827 5.57612C20.0654 5.65181 20.2216 5.77998 20.3315 5.94443C20.4414 6.10888 20.5 6.30222 20.5 6.5C20.5 6.76522 20.3946 7.01957 20.2071 7.20711C20.0196 7.39464 19.7652 7.5 19.5 7.5ZM23.19 18.87L24.33 17.87L23.33 16.14L21.88 16.63C21.5589 16.3594 21.1936 16.1463 20.8 16L20.5 14.5H18.5L18.2 15.99C17.8064 16.1362 17.441 16.3494 17.12 16.62L15.67 16.13L14.67 17.86L15.81 18.86C15.73 19.2762 15.73 19.7038 15.81 20.12L14.67 21.12L15.67 22.85L17.12 22.36C17.441 22.6306 17.8064 22.8438 18.2 22.99L18.5 24.5H20.5L20.8 23.01C21.1936 22.8638 21.559 22.6506 21.88 22.38L23.33 22.87L24.33 21.14L23.19 20.14C23.27 19.7204 23.27 19.2896 23.19 18.87ZM19.5 21.5C19.1044 21.5 18.7178 21.3827 18.3889 21.1629C18.06 20.9432 17.8036 20.6308 17.6522 20.2654C17.5009 19.8999 17.4613 19.4978 17.5384 19.1098C17.6156 18.7219 17.8061 18.3655 18.0858 18.0858C18.3655 17.8061 18.7219 17.6156 19.1098 17.5384C19.4978 17.4613 19.8999 17.5009 20.2654 17.6522C20.6308 17.8036 20.9432 18.06 21.1629 18.3889C21.3827 18.7178 21.5 19.1044 21.5 19.5C21.4984 20.0299 21.2872 20.5377 20.9125 20.9125C20.5377 21.2872 20.0299 21.4984 19.5 21.5Z" fill="white"/>
<path d="M12.5 19.5H4.5V17.5H12.794C13.2965 15.8248 14.4072 14.3981 15.908 13.5H1.5V23.5H13.76C12.9389 22.3279 12.4989 20.9311 12.5 19.5Z" fill="white"/>
</g>
<defs>
<clipPath id="clip0_1_185">
<rect width="24" height="24" fill="white" transform="translate(0.5 0.5)"/>
</clipPath>
</defs>
</svg>
