<svg width="29" height="28" viewBox="0 0 29 28" fill="none" xmlns="http://www.w3.org/2000/svg">
<g clip-path="url(#clip0_1_181)">
<path d="M8 12.5C8 12.2348 8.10536 11.9804 8.29289 11.7929C8.48043 11.6054 8.73478 11.5 9 11.5C9.26522 11.5 9.51957 11.6054 9.70711 11.7929C9.89464 11.9804 10 12.2348 10 12.5C10 12.7652 9.89464 13.0196 9.70711 13.2071C9.51957 13.3946 9.26522 13.5 9 13.5C8.73478 13.5 8.48043 13.3946 8.29289 13.2071C8.10536 13.0196 8 12.7652 8 12.5ZM9 18.5C8.73478 18.5 8.48043 18.6054 8.29289 18.7929C8.10536 18.9804 8 19.2348 8 19.5C8 19.7652 8.10536 20.0196 8.29289 20.2071C8.48043 20.3946 8.73478 20.5 9 20.5C9.26522 20.5 9.51957 20.3946 9.70711 20.2071C9.89464 20.0196 10 19.7652 10 19.5C10 19.2348 9.89464 18.9804 9.70711 18.7929C9.51957 18.6054 9.26522 18.5 9 18.5ZM3.5 6.75C3.5 5.75544 3.89509 4.80161 4.59835 4.09835C5.30161 3.39509 6.25544 3 7.25 3H21.75C22.7446 3 23.6984 3.39509 24.4017 4.09835C25.1049 4.80161 25.5 5.75544 25.5 6.75V14.5C24.2029 13.5241 22.6232 12.9975 21 13H21.75C21.9489 13 22.1397 12.921 22.2803 12.7803C22.421 12.6397 22.5 12.4489 22.5 12.25C22.5 12.0511 22.421 11.8603 22.2803 11.7197C22.1397 11.579 21.9489 11.5 21.75 11.5H14.25C14.0511 11.5 13.8603 11.579 13.7197 11.7197C13.579 11.8603 13.5 12.0511 13.5 12.25C13.5 12.4489 13.579 12.6397 13.7197 12.7803C13.8603 12.921 14.0511 13 14.25 13H21C19.6072 13 18.2418 13.3879 17.057 14.1201C15.8722 14.8524 14.9147 15.9001 14.2918 17.1459C13.6689 18.3917 13.4052 19.7863 13.5303 21.1735C13.6554 22.5608 14.1643 23.8857 15 25H7.25C6.25544 25 5.30161 24.6049 4.59835 23.9017C3.89509 23.1984 3.5 22.2446 3.5 21.25V6.75ZM6.5 12.5C6.5 13.163 6.76339 13.7989 7.23223 14.2678C7.70107 14.7366 8.33696 15 9 15C9.66304 15 10.2989 14.7366 10.7678 14.2678C11.2366 13.7989 11.5 13.163 11.5 12.5C11.5 11.837 11.2366 11.2011 10.7678 10.7322C10.2989 10.2634 9.66304 10 9 10C8.33696 10 7.70107 10.2634 7.23223 10.7322C6.76339 11.2011 6.5 11.837 6.5 12.5ZM9 17C8.33696 17 7.70107 17.2634 7.23223 17.7322C6.76339 18.2011 6.5 18.837 6.5 19.5C6.5 20.163 6.76339 20.7989 7.23223 21.2678C7.70107 21.7366 8.33696 22 9 22C9.66304 22 10.2989 21.7366 10.7678 21.2678C11.2366 20.7989 11.5 20.163 11.5 19.5C11.5 18.837 11.2366 18.2011 10.7678 17.7322C10.2989 17.2634 9.66304 17 9 17ZM6.5 6.75C6.5 7.164 6.836 7.5 7.25 7.5H21.75C21.9489 7.5 22.1397 7.42098 22.2803 7.28033C22.421 7.13968 22.5 6.94891 22.5 6.75C22.5 6.55109 22.421 6.36032 22.2803 6.21967C22.1397 6.07902 21.9489 6 21.75 6H7.25C7.05109 6 6.86032 6.07902 6.71967 6.21967C6.57902 6.36032 6.5 6.55109 6.5 6.75ZM27.5 20.5C27.5 22.2239 26.8152 23.8772 25.5962 25.0962C24.3772 26.3152 22.7239 27 21 27C19.2761 27 17.6228 26.3152 16.4038 25.0962C15.1848 23.8772 14.5 22.2239 14.5 20.5C14.5 18.7761 15.1848 17.1228 16.4038 15.9038C17.6228 14.6848 19.2761 14 21 14C22.7239 14 24.3772 14.6848 25.5962 15.9038C26.8152 17.1228 27.5 18.7761 27.5 20.5ZM21.5 16.5C21.5 16.3674 21.4473 16.2402 21.3536 16.1464C21.2598 16.0527 21.1326 16 21 16C20.8674 16 20.7402 16.0527 20.6464 16.1464C20.5527 16.2402 20.5 16.3674 20.5 16.5V20H17C16.8674 20 16.7402 20.0527 16.6464 20.1464C16.5527 20.2402 16.5 20.3674 16.5 20.5C16.5 20.6326 16.5527 20.7598 16.6464 20.8536C16.7402 20.9473 16.8674 21 17 21H20.5V24.5C20.5 24.6326 20.5527 24.7598 20.6464 24.8536C20.7402 24.9473 20.8674 25 21 25C21.1326 25 21.2598 24.9473 21.3536 24.8536C21.4473 24.7598 21.5 24.6326 21.5 24.5V21H25C25.1326 21 25.2598 20.9473 25.3536 20.8536C25.4473 20.7598 25.5 20.6326 25.5 20.5C25.5 20.3674 25.4473 20.2402 25.3536 20.1464C25.2598 20.0527 25.1326 20 25 20H21.5V16.5Z" fill="white"/>
</g>
<defs>
<clipPath id="clip0_1_181">
<rect width="28" height="28" fill="white" transform="translate(0.5)"/>
</clipPath>
</defs>
</svg>
