<svg width="33" height="33" viewBox="0 0 33 33" fill="none" xmlns="http://www.w3.org/2000/svg">
<path d="M25.833 15.1666H10.0197L14.8597 9.35331C15.086 9.08103 15.1949 8.72998 15.1624 8.37742C15.1299 8.02485 14.9586 7.69963 14.6863 7.47331C14.4141 7.247 14.063 7.13811 13.7104 7.17062C13.3579 7.20313 13.0327 7.37436 12.8063 7.64665L6.13967 15.6466C6.09482 15.7103 6.05471 15.7771 6.01967 15.8466C6.01967 15.9133 6.01967 15.9533 5.92634 16.02C5.86591 16.1729 5.83426 16.3356 5.83301 16.5C5.83426 16.6644 5.86591 16.8271 5.92634 16.98C5.92634 17.0466 5.92634 17.0866 6.01967 17.1533C6.05471 17.2228 6.09482 17.2897 6.13967 17.3533L12.8063 25.3533C12.9317 25.5038 13.0887 25.6249 13.2661 25.7078C13.4436 25.7908 13.6371 25.8336 13.833 25.8333C14.1445 25.8339 14.4465 25.7254 14.6863 25.5266C14.8214 25.4147 14.933 25.2772 15.0148 25.1221C15.0966 24.967 15.147 24.7972 15.1631 24.6226C15.1792 24.448 15.1606 24.2719 15.1086 24.1044C15.0565 23.9369 14.9719 23.7814 14.8597 23.6466L10.0197 17.8333H25.833C26.1866 17.8333 26.5258 17.6928 26.7758 17.4428C27.0259 17.1927 27.1663 16.8536 27.1663 16.5C27.1663 16.1464 27.0259 15.8072 26.7758 15.5572C26.5258 15.3071 26.1866 15.1666 25.833 15.1666Z" fill="white"/>
</svg>
