<svg width="29" height="29" viewBox="0 0 29 29" fill="none" xmlns="http://www.w3.org/2000/svg">
<path d="M22.6666 4H21.5C20.2113 4 19.1666 5.04467 19.1666 6.33333V22.6667C19.1666 23.9553 20.2113 25 21.5 25H22.6666C23.9553 25 25 23.9553 25 22.6667V6.33333C25 5.04467 23.9553 4 22.6666 4Z" fill="white"/>
<path d="M15.0834 11H13.9167C12.628 11 11.5834 12.0447 11.5834 13.3333V22.6667C11.5834 23.9553 12.628 25 13.9167 25H15.0834C16.372 25 17.4167 23.9553 17.4167 22.6667V13.3333C17.4167 12.0447 16.372 11 15.0834 11Z" fill="white"/>
<path d="M7.5 19.1667H6.33333C5.04467 19.1667 4 20.2113 4 21.5V22.6667C4 23.9553 5.04467 25 6.33333 25H7.5C8.78866 25 9.83333 23.9553 9.83333 22.6667V21.5C9.83333 20.2113 8.78866 19.1667 7.5 19.1667Z" fill="white"/>
</svg>
