<svg width="39" height="40" viewBox="0 0 39 40" fill="none" xmlns="http://www.w3.org/2000/svg">
<path fill-rule="evenodd" clip-rule="evenodd" d="M17.9303 18.407V5.66338C17.9303 4.78362 18.6435 4.07043 19.5232 4.07043C20.403 4.07043 21.1162 4.78362 21.1162 5.66338V18.407H33.8598C34.7395 18.407 35.4527 19.1202 35.4527 19.9999C35.4527 20.8797 34.7395 21.5929 33.8598 21.5929H21.1162V34.3365C21.1162 35.2162 20.403 35.9294 19.5232 35.9294C18.6435 35.9294 17.9303 35.2162 17.9303 34.3365V21.5929H5.1867C4.30694 21.5929 3.59375 20.8797 3.59375 19.9999C3.59375 19.1202 4.30694 18.407 5.1867 18.407H17.9303Z" fill="#313144"/>
</svg>
