<svg width="32" height="32" viewBox="0 0 32 32" fill="none" xmlns="http://www.w3.org/2000/svg">
<path d="M23.5333 8.46671C22.5465 7.47317 21.3728 6.68479 20.0799 6.14702C18.7869 5.60924 17.4003 5.33271 16 5.33338C10.1067 5.33338 5.34668 10.1067 5.34668 16C5.34668 21.8934 10.1067 26.6667 16 26.6667C20.9733 26.6667 25.12 23.2667 26.3067 18.6667H23.5333C22.9841 20.2261 21.9645 21.5765 20.6151 22.5318C19.2658 23.4871 17.6533 24.0001 16 24C11.5867 24 8.00001 20.4134 8.00001 16C8.00001 11.5867 11.5867 8.00004 16 8.00004C18.2133 8.00004 20.1867 8.92004 21.6267 10.3734L17.3333 14.6667H26.6667V5.33338L23.5333 8.46671Z" fill="white"/>
</svg>
