<svg width="35" height="36" viewBox="0 0 35 36" fill="none" xmlns="http://www.w3.org/2000/svg">
<path d="M18.9584 4.875C15.4774 4.875 12.139 6.25781 9.6776 8.71922C7.21618 11.1806 5.83337 14.519 5.83337 18H1.45837L7.13129 23.6729L7.23337 23.8771L13.125 18H8.75004C8.75004 12.3563 13.3146 7.79167 18.9584 7.79167C24.6021 7.79167 29.1667 12.3563 29.1667 18C29.1667 23.6438 24.6021 28.2083 18.9584 28.2083C16.1438 28.2083 13.5917 27.0563 11.7542 25.2042L9.68337 27.275C10.8988 28.4971 12.3441 29.4665 13.936 30.1273C15.5278 30.7881 17.2348 31.1272 18.9584 31.125C22.4393 31.125 25.7777 29.7422 28.2392 27.2808C30.7006 24.8194 32.0834 21.481 32.0834 18C32.0834 14.519 30.7006 11.1806 28.2392 8.71922C25.7777 6.25781 22.4393 4.875 18.9584 4.875ZM17.5 12.1667V19.4583L23.698 23.1333L24.8209 21.2521L19.6875 18.2042V12.1667H17.5Z" fill="white"/>
</svg>
