<svg width="35" height="35" viewBox="0 0 35 35" fill="none" xmlns="http://www.w3.org/2000/svg">
<path d="M18.9584 4.375C15.4774 4.375 12.139 5.75781 9.6776 8.21922C7.21618 10.6806 5.83337 14.019 5.83337 17.5H1.45837L7.13129 23.1729L7.23337 23.3771L13.125 17.5H8.75004C8.75004 11.8563 13.3146 7.29167 18.9584 7.29167C24.6021 7.29167 29.1667 11.8563 29.1667 17.5C29.1667 23.1438 24.6021 27.7083 18.9584 27.7083C16.1438 27.7083 13.5917 26.5563 11.7542 24.7042L9.68337 26.775C10.8988 27.9971 12.3441 28.9665 13.936 29.6273C15.5278 30.2881 17.2348 30.6272 18.9584 30.625C22.4393 30.625 25.7777 29.2422 28.2392 26.7808C30.7006 24.3194 32.0834 20.981 32.0834 17.5C32.0834 14.019 30.7006 10.6806 28.2392 8.21922C25.7777 5.75781 22.4393 4.375 18.9584 4.375ZM17.5 11.6667V18.9583L23.698 22.6333L24.8209 20.7521L19.6875 17.7042V11.6667H17.5Z" fill="white"/>
</svg>
