<svg width="25" height="24" viewBox="0 0 25 24" fill="none" xmlns="http://www.w3.org/2000/svg">
<path d="M21.75 8H9.75C9.48478 8 9.23043 8.10536 9.04289 8.29289C8.85536 8.48043 8.75 8.73478 8.75 9V21C8.75 21.2652 8.85536 21.5196 9.04289 21.7071C9.23043 21.8946 9.48478 22 9.75 22H21.75C22.0152 22 22.2696 21.8946 22.4571 21.7071C22.6446 21.5196 22.75 21.2652 22.75 21V9C22.75 8.73478 22.6446 8.48043 22.4571 8.29289C22.2696 8.10536 22.0152 8 21.75 8ZM20.75 20H10.75V10H20.75V20ZM6.75 15C6.75 15.2652 6.64464 15.5196 6.45711 15.7071C6.26957 15.8946 6.01522 16 5.75 16H3.75C3.48478 16 3.23043 15.8946 3.04289 15.7071C2.85536 15.5196 2.75 15.2652 2.75 15V3C2.75 2.73478 2.85536 2.48043 3.04289 2.29289C3.23043 2.10536 3.48478 2 3.75 2H15.75C16.0152 2 16.2696 2.10536 16.4571 2.29289C16.6446 2.48043 16.75 2.73478 16.75 3V5C16.75 5.26522 16.6446 5.51957 16.4571 5.70711C16.2696 5.89464 16.0152 6 15.75 6C15.4848 6 15.2304 5.89464 15.0429 5.70711C14.8554 5.51957 14.75 5.26522 14.75 5V4H4.75V14H5.75C6.01522 14 6.26957 14.1054 6.45711 14.2929C6.64464 14.4804 6.75 14.7348 6.75 15Z" fill="#111111" fill-opacity="0.32"/>
</svg>
