<svg width="25" height="24" viewBox="0 0 25 24" fill="none" xmlns="http://www.w3.org/2000/svg">
<path d="M12.75 1C10.5744 1 8.44767 1.64514 6.63873 2.85383C4.82979 4.06253 3.41989 5.78049 2.58733 7.79048C1.75477 9.80047 1.53693 12.0122 1.96137 14.146C2.3858 16.2798 3.43345 18.2398 4.97183 19.7782C6.51021 21.3166 8.47022 22.3642 10.604 22.7886C12.7378 23.2131 14.9495 22.9952 16.9595 22.1627C18.9695 21.3301 20.6875 19.9202 21.8962 18.1113C23.1049 16.3023 23.75 14.1756 23.75 12C23.7466 9.08367 22.5865 6.28778 20.5244 4.22563C18.4622 2.16347 15.6663 1.00344 12.75 1V1ZM12.75 21C10.97 21 9.22992 20.4722 7.74987 19.4832C6.26983 18.4943 5.11628 17.0887 4.43509 15.4442C3.7539 13.7996 3.57567 11.99 3.92294 10.2442C4.2702 8.49836 5.12737 6.89471 6.38604 5.63604C7.64472 4.37737 9.24836 3.5202 10.9942 3.17293C12.74 2.82567 14.5496 3.0039 16.1942 3.68508C17.8387 4.36627 19.2443 5.51983 20.2332 6.99987C21.2222 8.47991 21.75 10.22 21.75 12C21.7471 14.3861 20.7979 16.6735 19.1108 18.3607C17.4236 20.0479 15.1361 20.9971 12.75 21V21ZM13.75 8H11.75V6H13.75V8ZM13.75 18H11.75V10H13.75V18Z" fill="#111111" fill-opacity="0.32"/>
</svg>
