<svg width="34" height="34" viewBox="0 0 34 34" fill="none" xmlns="http://www.w3.org/2000/svg">
<path d="M25.5 21.25V25.5V21.25ZM25.5 29.75V25.5V29.75ZM25.5 25.5H21.25H25.5ZM25.5 25.5H29.75H25.5Z" fill="white"/>
<path d="M25.5 21.25V25.5M25.5 25.5V29.75M25.5 25.5H21.25M25.5 25.5H29.75" stroke="white" stroke-width="2" stroke-linecap="round" stroke-linejoin="round"/>
<path fill-rule="evenodd" clip-rule="evenodd" d="M7.08331 7.08398C5.95614 7.08398 4.87514 7.53175 4.07811 8.32878C3.28108 9.12581 2.83331 10.2068 2.83331 11.334V22.6673C2.83331 23.7945 3.28108 24.8755 4.07811 25.6725C4.87514 26.4696 5.95614 26.9173 7.08331 26.9173H17.1176C17.0391 26.4492 16.9998 25.9753 17 25.5007C17 23.8743 17.4561 22.3557 18.2481 21.0651C17.6123 21.2601 16.9397 21.3032 16.2843 21.191C15.6289 21.0789 15.0089 20.8145 14.4741 20.4192C13.9394 20.024 13.5049 19.5088 13.2054 18.915C12.906 18.3213 12.75 17.6656 12.75 17.0007C12.7508 16.3897 12.8834 15.7861 13.1386 15.231C13.3939 14.676 13.7658 14.1824 14.229 13.7841C14.6923 13.3858 15.2359 13.092 15.823 12.9228C16.4101 12.7536 17.0267 12.713 17.6309 12.8037C18.2351 12.8943 18.8126 13.1142 19.3241 13.4483C19.8356 13.7824 20.2691 14.2229 20.5949 14.7397C20.9208 15.2565 21.1314 15.8374 21.2124 16.443C21.2935 17.0486 21.243 17.6645 21.0644 18.2487C22.399 17.4303 23.9345 16.9983 25.5 17.0007C27.6774 17.0007 29.6636 17.8195 31.1666 19.1653V11.334C31.1666 10.2068 30.7189 9.12581 29.9219 8.32878C29.1248 7.53175 28.0438 7.08398 26.9166 7.08398H7.08331ZM17 15.584C16.6243 15.584 16.2639 15.7332 15.9982 15.9989C15.7326 16.2646 15.5833 16.6249 15.5833 17.0007C15.5833 17.3764 15.7326 17.7367 15.9982 18.0024C16.2639 18.2681 16.6243 18.4173 17 18.4173C17.3757 18.4173 17.736 18.2681 18.0017 18.0024C18.2674 17.7367 18.4166 17.3764 18.4166 17.0007C18.4166 16.6249 18.2674 16.2646 18.0017 15.9989C17.736 15.7332 17.3757 15.584 17 15.584Z" fill="white"/>
</svg>
