<svg width="30" height="30" viewBox="0 0 30 30" fill="none" xmlns="http://www.w3.org/2000/svg">
<path d="M15 27.5C14.3125 27.5 13.7242 27.2554 13.235 26.7663C12.7458 26.2771 12.5008 25.6883 12.5 25H17.5C17.5 25.6875 17.2554 26.2763 16.7663 26.7663C16.2771 27.2563 15.6883 27.5008 15 27.5ZM5 23.75V21.25H7.5V12.5C7.5 10.7708 8.02083 9.23458 9.0625 7.89125C10.1042 6.54792 11.4583 5.6675 13.125 5.25V2.5H16.875V5.25C17.1042 5.3125 17.3283 5.38042 17.5475 5.45375C17.7667 5.52708 17.98 5.61542 18.1875 5.71875L12.5 11.375V18.75H19.875L22.5 16.125V21.25H25V23.75H5ZM15 16.25V12.4062L23.2188 4.21875L27.0625 8.03125L18.8438 16.25H15ZM23.2188 9.25L24.375 8.03125L23.2188 6.875L22.0312 8.0625L23.2188 9.25Z" fill="white"/>
</svg>
