<svg width="28" height="28" viewBox="0 0 28 28" fill="none" xmlns="http://www.w3.org/2000/svg">
<g clip-path="url(#clip0_15_22418)">
<rect width="28" height="28" rx="3" fill="#E2E7ED"/>
<path d="M14 9C11.24 9 9 11.24 9 14C9 16.76 11.24 19 14 19C16.76 19 19 16.76 19 14C19 11.24 16.76 9 14 9ZM14 4C8.48 4 4 8.48 4 14C4 19.52 8.48 24 14 24C19.52 24 24 19.52 24 14C24 8.48 19.52 4 14 4ZM14 22C9.58 22 6 18.42 6 14C6 9.58 9.58 6 14 6C18.42 6 22 9.58 22 14C22 18.42 18.42 22 14 22Z" fill="#3B4256"/>
</g>
<defs>
<clipPath id="clip0_15_22418">
<rect width="28" height="28" rx="3" fill="white"/>
</clipPath>
</defs>
</svg>
