<svg width="29" height="28" viewBox="0 0 29 28" fill="none" xmlns="http://www.w3.org/2000/svg">
<path d="M12.1667 4.66667C10.929 4.66667 9.74204 5.15834 8.86688 6.03351C7.99171 6.90868 7.50004 8.09566 7.50004 9.33334C7.50004 10.571 7.99171 11.758 8.86688 12.6332C9.74204 13.5083 10.929 14 12.1667 14C13.4044 14 14.5914 13.5083 15.4665 12.6332C16.3417 11.758 16.8334 10.571 16.8334 9.33334C16.8334 8.09566 16.3417 6.90868 15.4665 6.03351C14.5914 5.15834 13.4044 4.66667 12.1667 4.66667ZM20.3334 14C20.2621 13.9987 20.1926 14.0225 20.1371 14.0673C20.0817 14.1121 20.0437 14.175 20.03 14.245L19.8084 15.785C19.4584 15.9367 19.12 16.1233 18.8167 16.3333L17.37 15.75C17.2417 15.75 17.09 15.75 17.0084 15.9017L15.8417 17.92C15.7717 18.0483 15.795 18.2 15.9117 18.2933L17.1484 19.25C17.1018 19.6375 17.1018 20.0292 17.1484 20.4167L15.9117 21.3733C15.8593 21.4183 15.8238 21.4798 15.811 21.5477C15.7983 21.6156 15.8091 21.6858 15.8417 21.7467L17.0084 23.765C17.0784 23.9167 17.23 23.9167 17.37 23.9167L18.8167 23.3333C19.12 23.5433 19.4467 23.7417 19.8084 23.8817L20.03 25.4217C20.0534 25.5617 20.17 25.6667 20.3334 25.6667H22.6667C22.795 25.6667 22.9234 25.5617 22.9467 25.4217L23.1684 23.8817C23.5184 23.73 23.8334 23.5433 24.1484 23.3333L25.5834 23.9167C25.735 23.9167 25.8867 23.9167 25.9684 23.765L27.135 21.7467C27.1676 21.6858 27.1784 21.6156 27.1657 21.5477C27.153 21.4798 27.1175 21.4183 27.065 21.3733L25.8167 20.4167C25.84 20.2183 25.8634 20.0317 25.8634 19.8333C25.8634 19.635 25.8517 19.4483 25.8167 19.25L27.0534 18.2933C27.1058 18.2484 27.1413 18.1869 27.154 18.119C27.1668 18.0511 27.156 17.9809 27.1234 17.92L25.9567 15.9017C25.8867 15.75 25.735 15.75 25.5834 15.75L24.1484 16.3333C23.8334 16.1233 23.5184 15.925 23.1567 15.785L22.935 14.245C22.9277 14.1785 22.8964 14.117 22.847 14.072C22.7977 14.0269 22.7336 14.0013 22.6667 14H20.3334ZM12.1667 16.3333C7.01004 16.3333 2.83337 18.4217 2.83337 21V23.3333H14.1267C13.606 22.2399 13.335 21.0444 13.3334 19.8333C13.3357 18.6612 13.5904 17.5033 14.08 16.4383C13.4617 16.3683 12.82 16.3333 12.1667 16.3333ZM21.5 18.0833C22.4684 18.0833 23.25 18.865 23.25 19.8333C23.25 20.8017 22.4684 21.5833 21.5 21.5833C20.52 21.5833 19.75 20.8017 19.75 19.8333C19.75 18.865 20.5317 18.0833 21.5 18.0833Z" fill="white"/>
</svg>
