<svg width="100" height="100" viewBox="0 0 100 100" fill="none" xmlns="http://www.w3.org/2000/svg">
<path d="M68.1667 58.3333C68.5 55.5833 68.75 52.8333 68.75 50C68.75 47.1667 68.5 44.4167 68.1667 41.6667H82.25C82.9167 44.3333 83.3334 47.125 83.3334 50C83.3334 52.875 82.9167 55.6667 82.25 58.3333M60.7917 81.5C63.2917 76.875 65.2084 71.875 66.5417 66.6667H78.8334C74.7966 73.6178 68.3922 78.8833 60.7917 81.5ZM59.75 58.3333H40.25C39.8334 55.5833 39.5834 52.8333 39.5834 50C39.5834 47.1667 39.8334 44.375 40.25 41.6667H59.75C60.125 44.375 60.4167 47.1667 60.4167 50C60.4167 52.8333 60.125 55.5833 59.75 58.3333ZM50 83.1667C46.5417 78.1667 43.75 72.625 42.0417 66.6667H57.9584C56.25 72.625 53.4584 78.1667 50 83.1667ZM33.3334 33.3333H21.1667C25.1619 26.3634 31.5617 21.0895 39.1667 18.5C36.6667 23.125 34.7917 28.125 33.3334 33.3333ZM21.1667 66.6667H33.3334C34.7917 71.875 36.6667 76.875 39.1667 81.5C31.5776 78.882 25.1869 73.6155 21.1667 66.6667ZM17.75 58.3333C17.0834 55.6667 16.6667 52.875 16.6667 50C16.6667 47.125 17.0834 44.3333 17.75 41.6667H31.8334C31.5 44.4167 31.25 47.1667 31.25 50C31.25 52.8333 31.5 55.5833 31.8334 58.3333M50 16.7917C53.4584 21.7917 56.25 27.375 57.9584 33.3333H42.0417C43.75 27.375 46.5417 21.7917 50 16.7917ZM78.8334 33.3333H66.5417C65.2376 28.1728 63.3066 23.1912 60.7917 18.5C68.4584 21.125 74.8334 26.4167 78.8334 33.3333ZM50 8.33334C26.9584 8.33334 8.33337 27.0833 8.33337 50C8.33337 61.0507 12.7232 71.6488 20.5373 79.4628C24.4064 83.3319 28.9997 86.4011 34.0549 88.495C39.1101 90.5889 44.5283 91.6667 50 91.6667C61.0507 91.6667 71.6488 87.2768 79.4628 79.4628C87.2768 71.6488 91.6667 61.0507 91.6667 50C91.6667 44.5283 90.589 39.1101 88.495 34.0549C86.4011 28.9996 83.3319 24.4063 79.4628 20.5372C75.5937 16.6681 71.0004 13.599 65.9452 11.505C60.89 9.41108 55.4718 8.33334 50 8.33334Z" fill="white"/>
</svg>
