<svg width="97" height="96" viewBox="0 0 97 96" fill="none" xmlns="http://www.w3.org/2000/svg">
<g clip-path="url(#clip0_1_192)">
<path fill-rule="evenodd" clip-rule="evenodd" d="M48.5 8C26.408 8 8.5 25.908 8.5 48C8.5 70.092 26.408 88 48.5 88C70.592 88 88.5 70.092 88.5 48C88.5 25.908 70.592 8 48.5 8ZM34.5 38C34.5 36.1615 34.8621 34.341 35.5657 32.6424C36.2693 30.9439 37.3005 29.4005 38.6005 28.1005C39.9005 26.8005 41.4439 25.7693 43.1424 25.0657C44.841 24.3621 46.6615 24 48.5 24C50.3385 24 52.159 24.3621 53.8576 25.0657C55.5561 25.7693 57.0995 26.8005 58.3995 28.1005C59.6995 29.4005 60.7307 30.9439 61.4343 32.6424C62.1379 34.341 62.5 36.1615 62.5 38C62.5 41.713 61.025 45.274 58.3995 47.8995C55.774 50.525 52.213 52 48.5 52C44.787 52 41.226 50.525 38.6005 47.8995C35.975 45.274 34.5 41.713 34.5 38ZM73.532 67.936C70.5377 71.7025 66.7312 74.7438 62.3967 76.8328C58.0621 78.9218 53.3117 80.0045 48.5 80C43.6883 80.0045 38.9379 78.9218 34.6033 76.8328C30.2688 74.7438 26.4623 71.7025 23.468 67.936C29.952 63.284 38.8 60 48.5 60C58.2 60 67.048 63.284 73.532 67.936Z" fill="white"/>
</g>
<defs>
<clipPath id="clip0_1_192">
<rect width="96" height="96" fill="white" transform="translate(0.5)"/>
</clipPath>
</defs>
</svg>
