<svg width="28" height="28" viewBox="0 0 28 28" fill="none" xmlns="http://www.w3.org/2000/svg">
<path d="M8.16634 1.16669V3.50002H3.49967C3.19026 3.50002 2.89351 3.62294 2.67472 3.84173C2.45592 4.06052 2.33301 4.35727 2.33301 4.66669V23.3334C2.33301 23.6428 2.45592 23.9395 2.67472 24.1583C2.89351 24.3771 3.19026 24.5 3.49967 24.5H12.5472C11.1112 22.7065 10.3872 20.4464 10.5138 18.1524C10.6404 15.8583 11.6087 13.6916 13.2333 12.067C14.8579 10.4424 17.0247 9.47413 19.3187 9.34752C21.6127 9.22092 23.8728 9.9449 25.6663 11.3809V4.66669C25.6663 4.35727 25.5434 4.06052 25.3246 3.84173C25.1058 3.62294 24.8091 3.50002 24.4997 3.50002H19.833V1.16669H17.4997V3.50002H10.4997V1.16669H8.16634ZM26.833 18.6667C26.833 19.5859 26.6519 20.4962 26.3002 21.3455C25.9484 22.1947 25.4328 22.9664 24.7828 23.6164C24.1327 24.2664 23.3611 24.7821 22.5118 25.1338C21.6625 25.4856 20.7523 25.6667 19.833 25.6667C18.9138 25.6667 18.0035 25.4856 17.1542 25.1338C16.3049 24.7821 15.5333 24.2664 14.8833 23.6164C14.2332 22.9664 13.7176 22.1947 13.3659 21.3455C13.0141 20.4962 12.833 19.5859 12.833 18.6667C12.833 16.8102 13.5705 15.0297 14.8833 13.7169C16.196 12.4042 17.9765 11.6667 19.833 11.6667C21.6895 11.6667 23.47 12.4042 24.7828 13.7169C26.0955 15.0297 26.833 16.8102 26.833 18.6667ZM18.6663 14V19.1497L21.3415 21.8249L22.9912 20.1752L20.9997 18.1837V14H18.6663Z" fill="#4D73BF"/>
</svg>
