<svg width="25" height="25" viewBox="0 0 25 25" fill="none" xmlns="http://www.w3.org/2000/svg">
<path d="M19.5 4.5H18.5V3.5C18.5 2.9 18.1 2.5 17.5 2.5C16.9 2.5 16.5 2.9 16.5 3.5V4.5H8.5V3.5C8.5 2.9 8.1 2.5 7.5 2.5C6.9 2.5 6.5 2.9 6.5 3.5V4.5H5.5C3.8 4.5 2.5 5.8 2.5 7.5V8.5H22.5V7.5C22.5 5.8 21.2 4.5 19.5 4.5ZM2.5 19.5C2.5 21.2 3.8 22.5 5.5 22.5H19.5C21.2 22.5 22.5 21.2 22.5 19.5V10.5H2.5V19.5ZM17.5 12.5C18.1 12.5 18.5 12.9 18.5 13.5C18.5 14.1 18.1 14.5 17.5 14.5C16.9 14.5 16.5 14.1 16.5 13.5C16.5 12.9 16.9 12.5 17.5 12.5ZM17.5 16.5C18.1 16.5 18.5 16.9 18.5 17.5C18.5 18.1 18.1 18.5 17.5 18.5C16.9 18.5 16.5 18.1 16.5 17.5C16.5 16.9 16.9 16.5 17.5 16.5ZM12.5 12.5C13.1 12.5 13.5 12.9 13.5 13.5C13.5 14.1 13.1 14.5 12.5 14.5C11.9 14.5 11.5 14.1 11.5 13.5C11.5 12.9 11.9 12.5 12.5 12.5ZM12.5 16.5C13.1 16.5 13.5 16.9 13.5 17.5C13.5 18.1 13.1 18.5 12.5 18.5C11.9 18.5 11.5 18.1 11.5 17.5C11.5 16.9 11.9 16.5 12.5 16.5ZM7.5 12.5C8.1 12.5 8.5 12.9 8.5 13.5C8.5 14.1 8.1 14.5 7.5 14.5C6.9 14.5 6.5 14.1 6.5 13.5C6.5 12.9 6.9 12.5 7.5 12.5ZM7.5 16.5C8.1 16.5 8.5 16.9 8.5 17.5C8.5 18.1 8.1 18.5 7.5 18.5C6.9 18.5 6.5 18.1 6.5 17.5C6.5 16.9 6.9 16.5 7.5 16.5Z" fill="white"/>
</svg>
