<svg width="20" height="21" viewBox="0 0 20 21" fill="none" xmlns="http://www.w3.org/2000/svg">
<path d="M10 10.5C8.625 10.5 7.44792 10.0104 6.46875 9.03125C5.48958 8.05208 5 6.875 5 5.5C5 4.125 5.48958 2.94792 6.46875 1.96875C7.44792 0.989584 8.625 0.5 10 0.5C11.375 0.5 12.5521 0.989584 13.5312 1.96875C14.5104 2.94792 15 4.125 15 5.5C15 6.875 14.5104 8.05208 13.5312 9.03125C12.5521 10.0104 11.375 10.5 10 10.5ZM0 20.5V17C0 16.2917 0.1825 15.6408 0.5475 15.0475C0.9125 14.4542 1.39667 14.0008 2 13.6875C3.29167 13.0417 4.60417 12.5575 5.9375 12.235C7.27083 11.9125 8.625 11.7508 10 11.75C11.375 11.75 12.7292 11.9117 14.0625 12.235C15.3958 12.5583 16.7083 13.0425 18 13.6875C18.6042 14 19.0887 14.4533 19.4538 15.0475C19.8188 15.6417 20.0008 16.2925 20 17V20.5H0Z" fill="#2E356D"/>
</svg>
